<?xml version="1.0" encoding="UTF-8" standalone="no"?>
<!DOCTYPE svg PUBLIC "-//W3C//DTD SVG 1.1//EN"
 "http://www.w3.org/Graphics/SVG/1.1/DTD/svg11.dtd">
<!-- Generated by graphviz version 12.1.1 (20240910.0053)
 -->
<!-- Title: INFRA Pages: 1 -->
<svg width="726pt" height="188pt"
 viewBox="0.00 0.00 726.03 188.00" xmlns="http://www.w3.org/2000/svg" xmlns:xlink="http://www.w3.org/1999/xlink">
<g id="graph0" class="graph" transform="scale(1 1) rotate(0) translate(4 184)">
<title>INFRA</title>
<polygon fill="white" stroke="none" points="-4,4 -4,-184 722.03,-184 722.03,4 -4,4"/>
<!-- vortexHttpApi -->
<g id="node1" class="node">
<title>vortexHttpApi</title>
<path fill="#e78f81" stroke="black" stroke-width="2" d="M173.61,-180C173.61,-180 12,-180 12,-180 6,-180 0,-174 0,-168 0,-168 0,-120 0,-120 0,-114 6,-108 12,-108 12,-108 173.61,-108 173.61,-108 179.61,-108 185.61,-114 185.61,-120 185.61,-120 185.61,-168 185.61,-168 185.61,-174 179.61,-180 173.61,-180"/>
<text text-anchor="middle" x="92.81" y="-148.2" font-family="Arial" font-size="14.00">vortexHttpApi</text>
<text text-anchor="middle" x="92.81" y="-131.4" font-family="Arial" font-size="14.00">(AWS::ApiGatewayV2::Api)</text>
</g>
<!-- WebhookHandler -->
<g id="node2" class="node">
<title>WebhookHandler</title>
<path fill="#b7e0ff" stroke="black" stroke-width="2" d="M368.34,-180C368.34,-180 215.28,-180 215.28,-180 209.28,-180 203.28,-174 203.28,-168 203.28,-168 203.28,-120 203.28,-120 203.28,-114 209.28,-108 215.28,-108 215.28,-108 368.34,-108 368.34,-108 374.34,-108 380.34,-114 380.34,-120 380.34,-120 380.34,-168 380.34,-168 380.34,-174 374.34,-180 368.34,-180"/>
<text text-anchor="middle" x="291.81" y="-148.2" font-family="Arial" font-size="14.00">WebhookHandler</text>
<text text-anchor="middle" x="291.81" y="-131.4" font-family="Arial" font-size="14.00">(AWS::Lambda::Function)</text>
</g>
<!-- DynamoDBTable -->
<g id="node3" class="node">
<title>DynamoDBTable</title>
<path fill="#ffcfb3" stroke="black" stroke-width="2" d="M381.49,-65.45C381.49,-69.07 341.29,-72 291.81,-72 242.32,-72 202.12,-69.07 202.12,-65.45 202.12,-65.45 202.12,-6.55 202.12,-6.55 202.12,-2.93 242.32,0 291.81,0 341.29,0 381.49,-2.93 381.49,-6.55 381.49,-6.55 381.49,-65.45 381.49,-65.45"/>
<path fill="none" stroke="black" stroke-width="2" d="M381.49,-65.45C381.49,-61.84 341.29,-58.91 291.81,-58.91 242.32,-58.91 202.12,-61.84 202.12,-65.45"/>
<text text-anchor="middle" x="291.81" y="-40.2" font-family="Arial" font-size="14.00">DynamoDBTable</text>
<text text-anchor="middle" x="291.81" y="-23.4" font-family="Arial" font-size="14.00">(AWS::DynamoDB::Table)</text>
</g>
<!-- WebhookHandler&#45;&gt;DynamoDBTable -->
<g id="edge1" class="edge">
<title>WebhookHandler&#45;&gt;DynamoDBTable</title>
<path fill="none" stroke="black" d="M291.81,-107.7C291.81,-99.93 291.81,-91.57 291.81,-83.43"/>
<polygon fill="black" stroke="black" points="295.31,-83.66 291.81,-73.66 288.31,-83.66 295.31,-83.66"/>
</g>
<!-- EventBridge -->
<g id="node4" class="node">
<title>EventBridge</title>
<path fill="#cce0ac" stroke="black" stroke-width="2" d="M561.55,-180C561.55,-180 410.06,-180 410.06,-180 404.06,-180 398.06,-174 398.06,-168 398.06,-168 398.06,-120 398.06,-120 398.06,-114 404.06,-108 410.06,-108 410.06,-108 561.55,-108 561.55,-108 567.55,-108 573.55,-114 573.55,-120 573.55,-120 573.55,-168 573.55,-168 573.55,-174 567.55,-180 561.55,-180"/>
<text text-anchor="middle" x="485.81" y="-148.2" font-family="Arial" font-size="14.00">EventBridge</text>
<text text-anchor="middle" x="485.81" y="-131.4" font-family="Arial" font-size="14.00">(AWS::Events::EventBus)</text>
</g>
<!-- GitHubOidcRole -->
<g id="node5" class="node">
<title>GitHubOidcRole</title>
<path fill="#e6e6e6" stroke="black" stroke-width="2" d="M706.03,-180C706.03,-180 603.58,-180 603.58,-180 597.58,-180 591.58,-174 591.58,-168 591.58,-168 591.58,-120 591.58,-120 591.58,-114 597.58,-108 603.58,-108 603.58,-108 706.03,-108 706.03,-108 712.03,-108 718.03,-114 718.03,-120 718.03,-120 718.03,-168 718.03,-168 718.03,-174 712.03,-180 706.03,-180"/>
<text text-anchor="middle" x="654.81" y="-148.2" font-family="Arial" font-size="14.00">GitHubOidcRole</text>
<text text-anchor="middle" x="654.81" y="-131.4" font-family="Arial" font-size="14.00">(AWS::IAM::Role)</text>
</g>
</g>
</svg>
